<?xml version="1.0" encoding="UTF-8"?>
<!DOCTYPE svg PUBLIC "-//W3C//DTD SVG 1.1//EN" "http://www.w3.org/Graphics/SVG/1.1/DTD/svg11.dtd">
<!-- Creator: CorelDRAW X8 -->
<svg xmlns="http://www.w3.org/2000/svg" xml:space="preserve" width="352px" height="154px" version="1.1" style="shape-rendering:geometricPrecision; text-rendering:geometricPrecision; image-rendering:optimizeQuality; fill-rule:evenodd; clip-rule:evenodd"
viewBox="0 0 352 154"
 xmlns:xlink="http://www.w3.org/1999/xlink">
 <defs>
  <style type="text/css">
   <![CDATA[
    .fil0 {fill:#000280}
   ]]>
  </style>
 </defs>
 <g id="Layer_x0020_1">
  <metadata id="CorelCorpID_0Corel-Layer"/>
  <g id="_1646704962128">
   <path class="fil0" d="M3 0c2,0 3,1 3,3 0,2 -1,3 -3,3 -2,0 -3,-1 -3,-3 0,-2 1,-3 3,-3z"/>
   <path class="fil0" d="M52 0c2,0 3,1 3,3 0,2 -1,3 -3,3 -1,0 -3,-1 -3,-3 0,-2 2,-3 3,-3z"/>
   <path class="fil0" d="M102 0c1,0 3,1 3,3 0,2 -2,3 -3,3 -2,0 -3,-1 -3,-3 0,-2 1,-3 3,-3z"/>
   <path class="fil0" d="M151 0c2,0 3,1 3,3 0,2 -1,3 -3,3 -2,0 -3,-1 -3,-3 0,-2 1,-3 3,-3z"/>
   <path class="fil0" d="M3 49c2,0 3,2 3,3 0,2 -1,3 -3,3 -2,0 -3,-1 -3,-3 0,-1 1,-3 3,-3z"/>
   <path class="fil0" d="M52 49c2,0 3,2 3,3 0,2 -1,3 -3,3 -1,0 -3,-1 -3,-3 0,-1 2,-3 3,-3z"/>
   <path class="fil0" d="M102 49c1,0 3,2 3,3 0,2 -2,3 -3,3 -2,0 -3,-1 -3,-3 0,-1 1,-3 3,-3z"/>
   <path class="fil0" d="M151 49c2,0 3,2 3,3 0,2 -1,3 -3,3 -2,0 -3,-1 -3,-3 0,-1 1,-3 3,-3z"/>
   <path class="fil0" d="M3 99c2,0 3,1 3,3 0,1 -1,3 -3,3 -2,0 -3,-2 -3,-3 0,-2 1,-3 3,-3z"/>
   <path class="fil0" d="M52 99c2,0 3,1 3,3 0,1 -1,3 -3,3 -1,0 -3,-2 -3,-3 0,-2 2,-3 3,-3z"/>
   <path class="fil0" d="M102 99c1,0 3,1 3,3 0,1 -2,3 -3,3 -2,0 -3,-2 -3,-3 0,-2 1,-3 3,-3z"/>
   <path class="fil0" d="M151 99c2,0 3,1 3,3 0,1 -1,3 -3,3 -2,0 -3,-2 -3,-3 0,-2 1,-3 3,-3z"/>
   <path class="fil0" d="M3 148c2,0 3,1 3,3 0,2 -1,3 -3,3 -2,0 -3,-1 -3,-3 0,-2 1,-3 3,-3z"/>
   <path class="fil0" d="M52 148c2,0 3,1 3,3 0,2 -1,3 -3,3 -1,0 -3,-1 -3,-3 0,-2 2,-3 3,-3z"/>
   <path class="fil0" d="M102 148c1,0 3,1 3,3 0,2 -2,3 -3,3 -2,0 -3,-1 -3,-3 0,-2 1,-3 3,-3z"/>
   <path class="fil0" d="M151 148c2,0 3,1 3,3 0,2 -1,3 -3,3 -2,0 -3,-1 -3,-3 0,-2 1,-3 3,-3z"/>
   <path class="fil0" d="M200 0c2,0 3,1 3,3 0,2 -1,3 -3,3 -2,0 -3,-1 -3,-3 0,-2 1,-3 3,-3z"/>
   <path class="fil0" d="M249 0c2,0 3,1 3,3 0,2 -1,3 -3,3 -1,0 -3,-1 -3,-3 0,-2 2,-3 3,-3z"/>
   <path class="fil0" d="M299 0c1,0 3,1 3,3 0,2 -2,3 -3,3 -2,0 -3,-1 -3,-3 0,-2 1,-3 3,-3z"/>
   <path class="fil0" d="M348 0c2,0 3,1 3,3 0,2 -1,3 -3,3 -2,0 -3,-1 -3,-3 0,-2 1,-3 3,-3z"/>
   <path class="fil0" d="M200 49c2,0 3,2 3,3 0,2 -1,3 -3,3 -2,0 -3,-1 -3,-3 0,-1 1,-3 3,-3z"/>
   <path class="fil0" d="M249 49c2,0 3,2 3,3 0,2 -1,3 -3,3 -1,0 -3,-1 -3,-3 0,-1 2,-3 3,-3z"/>
   <path class="fil0" d="M299 49c1,0 3,2 3,3 0,2 -2,3 -3,3 -2,0 -3,-1 -3,-3 0,-1 1,-3 3,-3z"/>
   <path class="fil0" d="M348 49c2,0 3,2 3,3 0,2 -1,3 -3,3 -2,0 -3,-1 -3,-3 0,-1 1,-3 3,-3z"/>
   <path class="fil0" d="M200 99c2,0 3,1 3,3 0,1 -1,3 -3,3 -2,0 -3,-2 -3,-3 0,-2 1,-3 3,-3z"/>
   <path class="fil0" d="M249 99c2,0 3,1 3,3 0,1 -1,3 -3,3 -1,0 -3,-2 -3,-3 0,-2 2,-3 3,-3z"/>
   <path class="fil0" d="M299 99c1,0 3,1 3,3 0,1 -2,3 -3,3 -2,0 -3,-2 -3,-3 0,-2 1,-3 3,-3z"/>
   <path class="fil0" d="M348 99c2,0 3,1 3,3 0,1 -1,3 -3,3 -2,0 -3,-2 -3,-3 0,-2 1,-3 3,-3z"/>
   <path class="fil0" d="M200 148c2,0 3,1 3,3 0,2 -1,3 -3,3 -2,0 -3,-1 -3,-3 0,-2 1,-3 3,-3z"/>
   <path class="fil0" d="M249 148c2,0 3,1 3,3 0,2 -1,3 -3,3 -1,0 -3,-1 -3,-3 0,-2 2,-3 3,-3z"/>
   <path class="fil0" d="M299 148c1,0 3,1 3,3 0,2 -2,3 -3,3 -2,0 -3,-1 -3,-3 0,-2 1,-3 3,-3z"/>
   <path class="fil0" d="M348 148c2,0 3,1 3,3 0,2 -1,3 -3,3 -2,0 -3,-1 -3,-3 0,-2 1,-3 3,-3z"/>
  </g>
 </g>
</svg>
