<svg width="420" height="338" viewBox="0 0 420 338" xmlns="http://www.w3.org/2000/svg"><g fill="none" fill-rule="evenodd"><path d="M85 338H5c-2.76 0-5-2.24-5-5V5c0-2.76 2.25-5 5-5h80v338z" fill="#32373D"/><path fill="#464F56" d="M0 63h85v14H0z"/><path d="M420 28v305c0 2.76-2.23 5-5 5H85V28h335z" fill="#E0E5EB"/><path d="M415 0c2.76 0 5 2.24 5 5v23H85V0h330z" fill="#EFF1F5"/><path d="M415 2c1.65 0 3 1.35 3 3v23H85V2h330z" fill="#FFF"/><path d="M418 30v302c0 2.2-1.8 4-4 4H85V30h333z" fill="#EBEEF2"/><path d="M24.52 13.42c0-.08-.1-.13-.15-.13l-1.4-.12s-.94-.93-1.06-1.03c-.1-.1-.3-.07-.36-.05l-.53.17c-.3-.92-.86-1.75-1.83-1.75h-.1c-.25-.36-.6-.52-.9-.52-2.26 0-3.34 2.83-3.68 4.27-.9.27-1.52.46-1.6.5-.5.14-.5.15-.57.62L11 25.67l10 1.88 5.43-1.17c0-.02-1.9-12.9-1.9-12.98zm-4.07-1l-.84.26v-.2c0-.54-.07-1-.2-1.36.5.08.84.64 1.05 1.3zm-1.67-1.17c.14.35.23.84.23 1.52v.1l-1.74.54c.34-1.3.98-1.9 1.52-2.15zm-.67-.65c.1 0 .2.04.3.1-.73.34-1.5 1.2-1.82 2.93l-1.4.42c.4-1.3 1.3-3.45 2.93-3.45z" fill="#95BF47"/><path d="M24.37 13.27l-1.4-.1s-.94-.93-1.06-1.03c-.02-.04-.07-.06-.13-.06l-.75 15.48 5.42-1.17s-1.9-12.9-1.9-12.98c-.03-.08-.1-.13-.17-.15z" fill="#5E8E3E"/><path d="M19.17 16.27l-.67 2s-.6-.33-1.3-.33c-1.06 0-1.1.67-1.1.83 0 .9 2.35 1.26 2.35 3.4 0 1.66-1.06 2.75-2.5 2.75-1.72 0-2.58-1.07-2.58-1.07l.46-1.53s.9.78 1.66.78c.5 0 .7-.4.7-.68 0-1.18-1.94-1.23-1.94-3.18 0-1.64 1.17-3.22 3.55-3.22.92-.02 1.37.25 1.37.25zM32.76 20c-.54-.28-.8-.53-.8-.87 0-.43.38-.7.98-.7.7 0 1.33.28 1.33.28l.5-1.5s-.46-.35-1.8-.35c-1.86 0-3.15 1.07-3.15 2.57 0 .85.6 1.5 1.4 1.96.66.36.9.63.9 1.02 0 .4-.34.73-.94.73-.9 0-1.75-.47-1.75-.47l-.53 1.5s.78.54 2.1.54c1.9 0 3.3-.94 3.3-2.64 0-.93-.7-1.57-1.54-2.05zM40.4 16.82c-.95 0-1.7.46-2.26 1.14l-.03-.02.83-4.28H36.8l-2.07 10.9h2.12l.7-3.72c.3-1.4 1.02-2.28 1.7-2.28.47 0 .66.33.66.8 0 .28 0 .65-.07.94l-.8 4.26h2.12l.83-4.4c.1-.47.15-1.02.15-1.4 0-1.22-.62-1.94-1.74-1.94zM46.96 16.82c-2.57 0-4.26 2.32-4.26 4.9 0 1.65 1 2.98 2.93 2.98 2.52 0 4.2-2.25 4.2-4.9.03-1.53-.87-2.98-2.87-2.98zm-1.04 6.25c-.73 0-1.03-.62-1.03-1.4 0-1.22.6-3.2 1.77-3.2.76 0 1 .64 1 1.27 0 1.3-.63 3.33-1.75 3.33zM55.3 16.82c-1.43 0-2.25 1.27-2.25 1.27h-.02l.13-1.15h-1.9c-.08.77-.26 1.95-.42 2.83l-1.5 7.8h2.14l.6-3.15h.04s.44.27 1.25.27c2.5 0 4.14-2.57 4.14-5.16 0-1.43-.63-2.72-2.2-2.72zm-2.03 6.27c-.56 0-.88-.32-.88-.32l.34-2c.25-1.33.94-2.2 1.7-2.2.64 0 .84.6.84 1.16 0 1.4-.82 3.35-2 3.35zM60.56 13.76c-.68 0-1.22.54-1.22 1.24 0 .63.4 1.07 1 1.07h.03c.66 0 1.23-.46 1.24-1.24 0-.63-.4-1.07-1.04-1.07zM57.57 24.55h2.13L61.15 17H59M66.57 16.97H65.1l.06-.35c.13-.73.56-1.37 1.27-1.37.38 0 .68.1.68.1l.43-1.66s-.36-.2-1.16-.2c-.75 0-1.5.2-2.1.7-.72.62-1.06 1.5-1.22 2.42l-.06.35h-1l-.32 1.6h1l-1.14 5.98h2.13l1.13-5.97h1.47l.3-1.6zM71.7 17s-1.33 3.35-1.92 5.18h-.02c-.04-.6-.53-5.2-.53-5.2H67l1.27 6.94c.03.15.02.25-.05.35-.25.48-.66.95-1.16 1.3-.4.28-.85.47-1.2.6l.6 1.8c.42-.08 1.32-.45 2.08-1.15.97-.9 1.87-2.32 2.8-4.23l2.6-5.6H71.7z" fill="#FFF"/><rect fill="#469CD0" x="362" y="8" width="45" height="14" rx="3"/><rect fill="#8ED0EC" x="376" y="14" width="17" height="2" rx="1"/><rect stroke="#EFF1F5" stroke-width="2" x="311" y="9" width="44" height="12" rx="2"/><rect fill="#8ED0EC" x="323" y="14" width="20" height="2" rx="1"/><path d="M14.16 53.03c-.3.16-.65.26-1.02.26-1.18 0-2.14-.97-2.14-2.16 0-1.18.96-2.14 2.14-2.14 1.2 0 2.15.96 2.15 2.14 0 .36-.1.7-.25 1l1.84 1.68-.9.9-1.84-1.7zm-1.02-.46c.8 0 1.43-.64 1.43-1.43 0-.8-.64-1.43-1.43-1.43-.8 0-1.43.65-1.43 1.44 0 .8.65 1.43 1.44 1.43z" fill="#7C92A3"/><path fill="#FFF" d="M11.3 72.93v-2.86l-.73-.7 2.86-2.16 2.86 2.34-.73.7v2.7h-1.43V71.5H12.7v1.43"/><path d="M10.57 86.5c0-.55.46-1 1-1h4.07c.55 0 1 .45 1 1v3.72c0 .55-.45 1-1 1h-4.07c-.55 0-1-.45-1-1V86.5zm.9-.3h4.46v2.88h-1.07l-.54.88h-1.78l-.36-.9h-.9l.18-2.85z" fill="#7C92A3"/><path fill="#7C92A3" d="M12.7 87.64l.73.54 1.78-1.25.2.7-1.97 1.44L12.36 88M11 106.57l3.4-3.57h2.3v2.5l-3.38 3.2-2.32-2.13zm4.3-1.43c.38 0 .7-.32.7-.7 0-.4-.32-.73-.7-.73-.4 0-.73.33-.73.73 0 .4.32.7.72.7zM10 126.18c0-.9 1.36-1.3 1.96-1.6.6-.3.47-1.15.16-1.45-.3-.3-.3-2.13.92-2.13h.17c1.22 0 1.35 1.52 1.05 2.13-.3.6-.3 1.03.3 1.33.6.3 1.52.5 1.52 1.72H10zM11 142.2h1.07v2.5H11v-2.5zm1.43-2.13h1.07v4.64h-1.07v-4.63zm1.43-1.07h1.07v5.7h-1.07V139zm1.43 2.14h1.06v3.57H15.3v-3.56zM11.98 159.08l-.52-.86.76-.76.86.52.24-.98h1.07l.24.98.86-.52.76.76-.52.86.97.24v1.07l-.96.24.52.86-.76.76-.86-.52-.25.97H13.3l-.24-.96-.86.52-.76-.76.52-.86-.98-.25v-1.08l.98-.24zm1.88 1.85c.64 0 1.16-.48 1.16-1.07 0-.6-.52-1.07-1.16-1.07-.64 0-1.16.47-1.16 1.06 0 .6.52 1.07 1.16 1.07z"/><rect fill="#49ABE5" x="65" y="85" width="10" height="6" rx="3"/><path d="M14 182c.5 0 2.5-3.12 2.5-4.5s-.84-2.5-2.5-2.5c-1.66 0-2.5 1.12-2.5 2.5s2 4.5 2.5 4.5zm0-3.5c.55 0 1-.45 1-1s-.45-1-1-1-1 .45-1 1 .45 1 1 1z" fill="#7C92A3"/><rect fill="#F1F2F3" x="23" y="69" width="20" height="2" rx="1"/><rect fill="#464F56" x="23" y="51" width="30" height="2" rx="1"/><rect fill="#464F56" x="23" y="87" width="22" height="2" rx="1"/><rect fill="#464F56" x="23" y="105" width="27" height="2" rx="1"/><rect fill="#464F56" x="23" y="123" width="20" height="2" rx="1"/><rect fill="#464F56" x="23" y="141" width="24" height="2" rx="1"/><rect fill="#464F56" x="23" y="159" width="18" height="2" rx="1"/><rect fill="#464F56" x="23" y="177" width="20" height="2" rx="1"/><rect fill="#E0E5EB" x="96" y="41" width="204" height="205" rx="4"/><rect fill="#E0E5EB" x="310" y="41" width="97" height="98" rx="4"/><rect fill="#E0E5EB" x="310" y="148" width="97" height="98" rx="4"/><rect fill="#FFF" x="97" y="42" width="202" height="202" rx="3"/><rect fill="#E0E5EB" x="96" y="255" width="311" height="70" rx="4"/><rect fill="#FFF" x="97" y="256" width="309" height="67" rx="3"/><rect fill="#FFF" x="311" y="42" width="95" height="95" rx="3"/><rect fill="#FFF" x="311" y="149" width="95" height="95" rx="3"/><rect fill="#D5E5B6" x="115" y="177" width="12" height="49" rx="2"/><rect fill="#D5E5B6" x="129" y="183" width="12" height="43" rx="2"/><rect fill="#96BF47" x="143" y="180" width="12" height="46" rx="2"/><rect fill="#D5E5B6" x="157" y="212" width="12" height="14" rx="2"/><rect fill="#D5E5B6" x="171" y="152" width="12" height="74" rx="2"/><rect fill="#D5E5B6" x="185" y="196" width="12" height="30" rx="2"/><rect fill="#D5E5B6" x="199" y="198" width="12" height="28" rx="2"/><rect fill="#D5E5B6" x="213" y="170" width="12" height="56" rx="2"/><rect fill="#D5E5B6" x="227" y="190" width="12" height="36" rx="2"/><rect fill="#D5E5B6" x="241" y="203" width="12" height="23" rx="2"/><rect fill="#D5E5B6" x="255" y="165" width="12" height="61" rx="2"/><rect fill="#D5E5B6" x="269" y="205" width="12" height="22" rx="2"/><path d="M109 228h178v1H109v-1zm0-10h178v1H109v-1zm0-10h178v1H109v-1zm0-10h178v1H109v-1zm0-10h178v1H109v-1zm0-10h178v1H109v-1zm0-10h178v1H109v-1zm0-10h178v1H109v-1zm0-10h178v1H109v-1zm0-10h178v1H109v-1z" fill="#C1CBD7" opacity=".2"/><rect fill="#C1CBD7" x="109" y="54" width="40" height="5" rx="1"/><rect fill="#F5F6F8" x="109" y="65" width="88" height="5" rx="1"/><rect fill="#C1CBD7" x="323" y="54" width="20" height="5" rx="1"/><rect fill="#F5F6F8" x="323" y="65" width="39" height="5" rx="1"/><path fill="#E3E7ED" d="M109 91h18v2h-18zM116 97h11v2h-11zM112 103h15v2h-15zM115 109h12v2h-12zM110 115h17v2h-17z"/><path fill="#96BF47" d="M139 91h42v2h-42z"/><path fill="#F5F6F8" d="M139 97h27v2h-27zM331 85h31v2h-31zM331 93h26v2h-26zM139 103h29v2h-29zM139 115h35v2h-35zM139 109h39v2h-39z"/><path fill="#E3E7ED" d="M314 276h18v2h-18zM321 282h11v2h-11zM317 288h15v2h-15zM320 294h12v2h-12zM315 300h17v2h-17z"/><path fill="#C1CBD7" d="M344 276h42v2h-42z"/><path fill="#F5F6F8" d="M344 282h27v2h-27zM344 288h29v2h-29zM344 300h35v2h-35zM344 294h39v2h-39z"/><circle fill="#FFA73D" cx="325" cy="86" r="2"/><path fill="#C1CBD7" d="M172 286h31v2h-31z"/><path fill="#F5F6F8" d="M172 292h27v2h-27z"/><circle fill="#96BF47" cx="166" cy="287" r="2"/><path fill="#C1CBD7" d="M223 286h31v2h-31z"/><path fill="#F5F6F8" d="M223 292h36v2h-36z"/><circle fill="#D5E5B6" cx="217" cy="287" r="2"/><circle fill="#D93D0E" cx="325" cy="94" r="2"/><path fill="#FFE4C7" d="M323 110h7v7h-7z"/><path fill="#FFE5C6" d="M331 110h7v7h-7z"/><path fill="#FFD4A0" d="M339 110h7v7h-7z"/><path fill="#FFD4A2" d="M347 110h7v7h-7z"/><path fill="#FED4A2" d="M355 110h7v7h-7z"/><path fill="#FEE5C7" d="M363 110h7v7h-7z"/><path fill="#FFAA45" d="M371 110h7v7h-7z"/><path fill="#FFC37D" d="M379 110h7v7h-7z"/><path fill="#FFD2A4" d="M387 110h7v7h-7z"/><path fill="#F6D3C0" d="M323 118h7v7h-7zM331 118h7v7h-7z"/><path fill="#EEA680" d="M339 118h7v7h-7z"/><path fill="#EDA881" d="M347 118h7v7h-7z"/><path fill="#E36C2C" d="M355 118h7v7h-7z"/><path fill="#D93E0F" d="M363 118h7v7h-7z"/><path fill="#EB976B" d="M371 118h7v7h-7z"/><path fill="#F6D3C0" d="M379 118h7v7h-7z"/><path fill="#F6D1BF" d="M387 118h7v7h-7z"/><rect fill="#C1CBD7" x="323" y="161" width="20" height="5" rx="1"/><rect fill="#F5F6F8" x="323" y="172" width="39" height="5" rx="1"/><path fill="#F5F6F8" d="M331 192h31v2h-31zM331 200h26v2h-26z"/><circle fill="#1FB890" cx="325" cy="193" r="2"/><circle fill="#00B0DD" cx="325" cy="201" r="2"/><path fill="#BFEAE0" d="M323 217h7v7h-7z"/><path fill="#C0EBE1" d="M331 217h7v7h-7z"/><path fill="#55C8A9" d="M339 217h7v7h-7zM347 217h7v7h-7z"/><path fill="#7FD7BF" d="M355 217h7v7h-7z"/><path fill="#26BC94" d="M363 217h7v7h-7z"/><path fill="#7FD7BF" d="M371 217h7v7h-7z"/><path fill="#BFEBDE" d="M379 217h7v7h-7z"/><path fill="#7FD6C1" d="M387 217h7v7h-7z"/><path fill="#B8E5E8" d="M323 225h7v7h-7z"/><path fill="#9FDCDE" d="M331 225h7v7h-7z"/><path fill="#B8E5E8" d="M339 225h7v7h-7z"/><path fill="#A0DDE0" d="M347 225h7v7h-7zM355 225h7v7h-7zM363 225h7v7h-7z"/><path fill="#10A9AF" d="M371 225h7v7h-7z"/><path fill="#57C2C8" d="M379 225h7v7h-7z"/><path fill="#B8E5E8" d="M387 225h7v7h-7z"/><path d="M130.5 311c11.87 0 21.5-9.63 21.5-21.5s-9.63-21.5-21.5-21.5-21.5 9.63-21.5 21.5 9.63 21.5 21.5 21.5zm0-6c8.56 0 15.5-6.94 15.5-15.5 0-8.56-6.94-15.5-15.5-15.5-8.56 0-15.5 6.94-15.5 15.5 0 8.56 6.94 15.5 15.5 15.5z" fill="#96BF47"/><path d="M131 274v-6h-.5c-11.87 0-21.5 9.63-21.5 21.5v.5h6v-.5c0-8.56 6.94-15.5 15.5-15.5h.5z" fill="#D5E5B6"/></g></svg>