<?xml version="1.0" encoding="UTF-8"?>
<!DOCTYPE svg PUBLIC "-//W3C//DTD SVG 1.1//EN" "http://www.w3.org/Graphics/SVG/1.1/DTD/svg11.dtd">
<!-- Creator: CorelDRAW X8 -->
<svg xmlns="http://www.w3.org/2000/svg" xml:space="preserve" width="1000px" height="1000px" version="1.1" style="shape-rendering:geometricPrecision; text-rendering:geometricPrecision; image-rendering:optimizeQuality; fill-rule:evenodd; clip-rule:evenodd"
viewBox="0 0 1000 1000"
 xmlns:xlink="http://www.w3.org/1999/xlink">
 <defs>
  <style type="text/css">
   <![CDATA[
    .str3 {stroke:#373435;stroke-width:19.9996}
    .str1 {stroke:#373435;stroke-width:19.9996}
    .str2 {stroke:#373435;stroke-width:2.08347}
    .str0 {stroke:#373435;stroke-width:2.08347}
    .fil0 {fill:none}
    .fil1 {fill:#FEFEFE}
    .fil3 {fill:#373435}
    .fil2 {fill:#373435;fill-rule:nonzero}
   ]]>
  </style>
 </defs>
 <g id="Layer_x0020_1">
  <metadata id="CorelCorpID_0Corel-Layer"/>
  <g id="_1907086608144">
   <rect class="fil0 str0" x="1905" y="1288" width="360" height="180"/>
   <circle class="fil0 str0" cx="1545" cy="1378" r="180"/>
   <path class="fil0 str0" d="M2295 1738c0,265 -215,480 -480,480 -265,0 -480,-215 -480,-480l210 0c0,149 121,270 270,270 149,0 270,-121 270,-270l210 0z"/>
  </g>
  <g id="_1907086604752">
   <rect class="fil0" width="1000" height="1000"/>
   <g>
    <circle class="fil1" cx="500" cy="500" r="400"/>
    <path class="fil2 str1" d="M800 500c0,83 -34,158 -88,212 -54,54 -129,88 -212,88 -52,0 -101,-13 -143,-36l0 -2c43,23 91,36 143,36 82,0 157,-33 211,-87 54,-54 87,-129 87,-211l2 0z"/>
    <polygon class="fil3 str2" points="387,566 500,659 613,566 613,341 387,341 "/>
    <line class="fil0 str3" x1="556" y1="613" x2="731" y2= "916" />
    <line class="fil0 str3" x1="444" y1="613" x2="269" y2= "916" />
   </g>
  </g>
 </g>
</svg>
