<?xml version="1.0" encoding="UTF-8"?>
<!DOCTYPE svg PUBLIC "-//W3C//DTD SVG 1.1//EN" "http://www.w3.org/Graphics/SVG/1.1/DTD/svg11.dtd">
<!-- Creator: CorelDRAW X8 -->
<svg xmlns="http://www.w3.org/2000/svg" xml:space="preserve" width="1000px" height="1000px" version="1.1" style="shape-rendering:geometricPrecision; text-rendering:geometricPrecision; image-rendering:optimizeQuality; fill-rule:evenodd; clip-rule:evenodd"
viewBox="0 0 1000 1000"
 xmlns:xlink="http://www.w3.org/1999/xlink">
 <defs>
  <style type="text/css">
   <![CDATA[
    .str0 {stroke:#373435;stroke-width:2.08347}
    .fil0 {fill:none}
    .fil1 {fill:#FEFEFE}
    .fil2 {fill:#373435}
   ]]>
  </style>
 </defs>
 <g id="Layer_x0020_1">
  <metadata id="CorelCorpID_0Corel-Layer"/>
  <g id="_1907089420608">
   <rect class="fil0 str0" x="1905" y="1288" width="360" height="180"/>
   <circle class="fil0 str0" cx="1545" cy="1378" r="180"/>
   <path class="fil0 str0" d="M2295 1738c0,265 -215,480 -480,480 -265,0 -480,-215 -480,-480l210 0c0,149 121,270 270,270 149,0 270,-121 270,-270l210 0z"/>
  </g>
  <g id="_1907089417120">
   <rect class="fil0" width="1000" height="1000"/>
   <g>
    <rect class="fil1" x="64" y="384" width="875" height="525"/>
    <path class="fil2" d="M687 171c52,51 77,118 77,185l-87 0c0,-45 -17,-89 -52,-124 -68,-68 -179,-68 -247,0 -34,35 -51,79 -51,124l-88 0c0,-67 26,-134 77,-185 103,-103 269,-103 371,0z"/>
   </g>
  </g>
 </g>
</svg>
