<?xml version="1.0" encoding="UTF-8"?>
<!DOCTYPE svg PUBLIC "-//W3C//DTD SVG 1.1//EN" "http://www.w3.org/Graphics/SVG/1.1/DTD/svg11.dtd">
<!-- Creator: CorelDRAW X8 -->
<svg xmlns="http://www.w3.org/2000/svg" xml:space="preserve" width="1000px" height="1000px" version="1.1" style="shape-rendering:geometricPrecision; text-rendering:geometricPrecision; image-rendering:optimizeQuality; fill-rule:evenodd; clip-rule:evenodd"
viewBox="0 0 1000 1000"
 xmlns:xlink="http://www.w3.org/1999/xlink">
 <defs>
  <style type="text/css">
   <![CDATA[
    .fil0 {fill:none}
    .fil1 {fill:#FEFEFE}
    .fil2 {fill:#373435}
   ]]>
  </style>
 </defs>
 <g id="Layer_x0020_1">
  <metadata id="CorelCorpID_0Corel-Layer"/>
  <g id="_1907089239216">
   <rect class="fil0" width="1000" height="1000"/>
   <g>
    <path class="fil1" d="M606 189c115,115 115,302 0,417 -115,115 -302,115 -417,0 -115,-115 -115,-302 0,-417 115,-116 302,-116 417,0zm-69 69c76,77 76,202 0,278 -77,77 -202,77 -279,0 -76,-76 -76,-201 0,-278 77,-77 202,-77 279,0z"/>
    <rect class="fil2" transform="matrix(0.504052 -0.504051 0.328723 0.328722 610.25 679.686)" width="138" height="677"/>
   </g>
  </g>
 </g>
</svg>
