<?xml version="1.0" encoding="UTF-8"?>
<!DOCTYPE svg PUBLIC "-//W3C//DTD SVG 1.1//EN" "http://www.w3.org/Graphics/SVG/1.1/DTD/svg11.dtd">
<!-- Creator: CorelDRAW X8 -->
<svg xmlns="http://www.w3.org/2000/svg" xml:space="preserve" width="1000px" height="1000px" version="1.1" style="shape-rendering:geometricPrecision; text-rendering:geometricPrecision; image-rendering:optimizeQuality; fill-rule:evenodd; clip-rule:evenodd"
viewBox="0 0 1000 1000"
 xmlns:xlink="http://www.w3.org/1999/xlink">
 <defs>
  <style type="text/css">
   <![CDATA[
    .str1 {stroke:#373435;stroke-width:19.9996}
    .str3 {stroke:#373435;stroke-width:2.08347}
    .str0 {stroke:#373435;stroke-width:2.08347}
    .str2 {stroke:#373435;stroke-width:19.9996;stroke-dasharray:39.999244 19.999622}
    .fil0 {fill:none}
    .fil1 {fill:#FEFEFE}
    .fil2 {fill:#373435}
   ]]>
  </style>
 </defs>
 <g id="Layer_x0020_1">
  <metadata id="CorelCorpID_0Corel-Layer"/>
  <g id="_1907091357568">
   <rect class="fil0 str0" x="1905" y="1288" width="360" height="180"/>
   <circle class="fil0 str0" cx="1545" cy="1378" r="180"/>
   <path class="fil0 str0" d="M2295 1738c0,265 -215,480 -480,480 -265,0 -480,-215 -480,-480l210 0c0,149 121,270 270,270 149,0 270,-121 270,-270l210 0z"/>
  </g>
  <g id="_1907091355040">
   <rect class="fil0" width="1000" height="1000"/>
   <g>
    <circle class="fil1" cx="203" cy="198" r="150"/>
    <path class="fil1" d="M803 648c83,0 150,67 150,150 0,82 -67,150 -150,150 -83,0 -150,-68 -150,-150 0,-83 67,-150 150,-150zm0 50c55,0 100,44 100,100 0,55 -45,100 -100,100 -55,0 -100,-45 -100,-100 0,-56 45,-100 100,-100z"/>
    <path class="fil0 str1" d="M353 198c0,0 450,-39 450,450"/>
    <line class="fil0 str2" x1="353" y1="198" x2="803" y2= "198" />
    <polygon class="fil2 str3" points="803,273 928,198 803,123 "/>
   </g>
  </g>
 </g>
</svg>
