<?xml version="1.0" encoding="UTF-8"?>
<!DOCTYPE svg PUBLIC "-//W3C//DTD SVG 1.1//EN" "http://www.w3.org/Graphics/SVG/1.1/DTD/svg11.dtd">
<!-- Creator: CorelDRAW X8 -->
<svg xmlns="http://www.w3.org/2000/svg" xml:space="preserve" width="1000px" height="1000px" version="1.1" style="shape-rendering:geometricPrecision; text-rendering:geometricPrecision; image-rendering:optimizeQuality; fill-rule:evenodd; clip-rule:evenodd"
viewBox="0 0 1000 1000"
 xmlns:xlink="http://www.w3.org/1999/xlink">
 <defs>
  <style type="text/css">
   <![CDATA[
    .str0 {stroke:#373435;stroke-width:2.08347}
    .fil0 {fill:none}
    .fil1 {fill:#FEFEFE}
    .fil2 {fill:#373435}
    .fil3 {fill:#2196F3}
   ]]>
  </style>
 </defs>
 <g id="Layer_x0020_1">
  <metadata id="CorelCorpID_0Corel-Layer"/>
  <g id="_1907086594352">
   <rect class="fil0 str0" x="1905" y="1288" width="360" height="180"/>
   <circle class="fil0 str0" cx="1545" cy="1378" r="180"/>
   <path class="fil0 str0" d="M2295 1738c0,265 -215,480 -480,480 -265,0 -480,-215 -480,-480l210 0c0,149 121,270 270,270 149,0 270,-121 270,-270l210 0z"/>
  </g>
  <g id="_1907086590448">
   <rect class="fil0" width="1000" height="1000"/>
   <g>
    <path class="fil1" d="M125 125l750 0c41,0 75,34 75,75l0 450c0,41 -34,75 -75,75l-337 0 0 75 112 0 0 75 -300 0 0 -75 112 0 0 -75 -337 0c-41,0 -75,-34 -75,-75l0 -450c0,-41 34,-75 75,-75zm0 75l750 0 0 450 -750 0 0 -450z"/>
    <rect class="fil2" x="125" y="200" width="750" height="450"/>
    <rect class="fil3" x="185" y="260" width="630" height="120"/>
    <rect class="fil3" x="185" y="440" width="420" height="150"/>
    <rect class="fil3" x="665" y="452" width="150" height="150" rx="45" ry="75"/>
   </g>
  </g>
 </g>
</svg>
